<svg id="Símbolo_SLB" data-name="Símbolo SLB" xmlns="http://www.w3.org/2000/svg" width="58.286" height="72" viewBox="0 0 58.286 72">
  <path id="Path_1" data-name="Path 1" d="M35.937,65.846c0,.29-.233.406-.35.638-.175.348-.117.754-.35,1.1h-.291a2.688,2.688,0,0,1-.525,1.334c.35.174.7.232.991.406.117.058.291.29.408.348,1.341.638,2.623,1.044,3.905,1.74l.35.058,1.049.348,1.166.348h.058l.175.058.874.348,1.107.464,2.1.928.991.522.874.464.816.464.758.406.641.406.874.58,1.865,1.218h-.175l-2.565.232-1.515.116.408,3.364c-.35-.232-.933-.58-1.515-.928a19.725,19.725,0,0,1,1.69,8,20.284,20.284,0,0,1-40.567,0,19.325,19.325,0,0,1,1.69-8c-.583.406-1.049.754-1.4.986v-.058l-.117.058.408-3.364-4.138-.348L5.4,78.026l1.923-1.218.874-.58.641-.406.758-.464.816-.464.933-.522.991-.522,1.049-.522,1.107-.522,1.107-.464,1.107-.406.583-.174.583-.174.525-.174.583-.174.35-.058a18.625,18.625,0,0,1,5.829-2.2,1.4,1.4,0,0,0,.35-.464l-.058-.058c-.874-.348-.758-1.218-.7-2.03,0,.7-.175.406-.408.174,0-.174-.058-.348-.058-.522l-.233-.058a4.369,4.369,0,0,1-.058-.87,1.727,1.727,0,0,1-1.749.174c-.641.116-.758.464-1.574.29L20.55,65.5c-.291.116-.7-.116-.991-.116-.758-.116-3.5-.174-3.672-1.218-.233-.058-.874-.464-.874-.754-1.049-.29-2.506-.406-3.381-1.16a7.222,7.222,0,0,1-3.555-1.508c-.233-.174-.466-.58-.7-.754-.466-.348-1.107-.464-1.632-.87-.233-.174-.525-.58-.758-.754a12.356,12.356,0,0,1-1.224-.638,8.686,8.686,0,0,0-.641-.754c-.7-.464-1.457-.464-2.1-1.044a2.169,2.169,0,0,1-.874-1.8c.7-.7,6.878-.348,7.519-.348,3.381-.058,9.384-.58,12.648.522a4.721,4.721,0,0,1,2.739,2.32c1.574.522,1.224,1.276,2.273,2.088,0-.232.058-.522.058-.754l.233-.174a1.042,1.042,0,0,1-.408-.87l-.466-.986c-.35-.232-1.982-.812-1.749-1.566l-.35.174c-1.749-1.508.874-3.422,2.739-2.61a3.071,3.071,0,0,1,1.049-.116l.291.058c.874.174,1.574.754,2.448.87.816.116.525-.464,1.69.174l-.058.406a3.721,3.721,0,0,1,.816.464v.406a1.814,1.814,0,0,1,.525.406v.232c.583.174,1.865,1.334,1.457,2.03a1.479,1.479,0,0,1,.466,1.508l.058.116h.117c.408-.7.933-2.088,1.923-2.2,2.157-3.828,10.317-2.726,13.755-2.784,1.807-.058,3.614,0,5.421,0a10.366,10.366,0,0,1,2.331-.058,4.405,4.405,0,0,1,.758.348,2.7,2.7,0,0,1-1.865,2.2l-.758.348c-.641.464-1.574,1.624-2.215,2.146-.466.464-1.166.638-1.632,1.044a5.786,5.786,0,0,1-.583.638,8.183,8.183,0,0,1-3.73,1.74,4.012,4.012,0,0,1-3.089,1.218c-.175.116-.408.232-.583.348-.058.116-.291.464-.408.464-.058.464-.7,1.1-1.166.986a4.836,4.836,0,0,1-2.565.29,1.394,1.394,0,0,1-1.049.29c-.641.522-1.574.058-1.807.116a1.573,1.573,0,0,1-1.049.232Z" transform="translate(-0.15 -36.999)" fill="#fff"/>
  <path id="Path_2" data-name="Path 2" d="M54.734,114.626a19.2,19.2,0,1,1-19.3,19.2A19.288,19.288,0,0,1,54.734,114.626Z" transform="translate(-25.354 -81.924)"/>
  <path id="Path_3" data-name="Path 3" d="M36.379,134.5a19.028,19.028,0,1,1,19.029,18.935A19,19,0,0,1,36.379,134.5Z" transform="translate(-26.028 -82.594)" fill="#adb9c0"/>
  <path id="Path_4" data-name="Path 4" d="M45.493,140.979a16.424,16.424,0,1,0,16.424-16.344A16.4,16.4,0,0,0,45.493,140.979Z" transform="translate(-32.538 -89.073)"/>
  <path id="Path_5" data-name="Path 5" d="M46.44,141.652a16.154,16.154,0,1,1,16.154,16.075A16.133,16.133,0,0,1,46.44,141.652Z" transform="translate(-33.214 -89.746)" fill="#fff"/>
  <path id="Path_6" data-name="Path 6" d="M49.593,143.893a15.253,15.253,0,1,0,15.253-15.179,15.233,15.233,0,0,0-15.253,15.179Z" transform="translate(-35.466 -91.986)"/>
  <path id="Path_7" data-name="Path 7" d="M50.591,144.6A14.968,14.968,0,1,1,65.559,159.5,14.948,14.948,0,0,1,50.591,144.6Z" transform="translate(-36.179 -92.696)" fill="#fff"/>
  <path id="Path_8" data-name="Path 8" d="M80.5,148.374c0-.041,0-.082,0-.123s0-.1,0-.147H66.786l13.451-2.663c-.017-.088-.034-.176-.053-.264l-13.345,2.642L79.4,142.64c-.034-.083-.068-.166-.1-.249L66.733,147.57l11.3-7.513q-.075-.112-.151-.223l-11.3,7.513,9.6-9.557q-.1-.1-.192-.19l-9.6,9.557,7.545-11.236c-.074-.051-.149-.1-.225-.149l-7.544,11.236,4.91-11.8-.249-.1-4.91,11.8,2.24-11.209-.265-.053-2.2,10.984V135.051h-.36v11.576l-2.269-11.351-.265.053L65.117,146.9l-5.033-12.089-.25.1,5.032,12.089-7.541-11.231c-.075.049-.151.1-.225.149l7.541,11.231-9.6-9.552q-.1.094-.192.19l9.6,9.552-11.292-7.509q-.076.111-.151.223L64.3,147.571l-12.557-5.176c-.035.082-.07.165-.1.248L64.2,147.819l-13.337-2.639c-.018.088-.036.176-.053.264L64.247,148.1H50.541c0,.049,0,.1,0,.147s0,.082,0,.123h13.5l-13.241,2.621c.017.089.033.177.051.265l13.35-2.643L51.617,153.8c.034.083.067.166.1.249L64.3,148.866l-11.322,7.528c.049.075.1.15.149.224l11.323-7.529-9.631,9.585c.063.064.126.128.191.191l9.632-9.585L57.07,160.555c.074.051.149.1.225.15l7.571-11.277-5.219,12.537.25.1,5.619-13.5,5.621,13.5c.083-.033.167-.067.25-.1l-5.22-12.541,7.574,11.281c.075-.049.15-.1.225-.15l-7.574-11.281,9.637,9.59.191-.191-9.636-9.59,11.33,7.534.149-.224-11.33-7.534,12.59,5.189c.035-.083.069-.166.1-.249l-12.588-5.189,13.36,2.644q.027-.132.051-.264L67,148.374H80.5Z" transform="translate(-36.142 -96.344)"/>
  <path id="Path_9" data-name="Path 9" d="M40.266,123.138a7.428,7.428,0,0,0-2.442-.289,21.146,21.146,0,0,0-5.895,2.084c-1.363.654-3.054,1.51-6.436,3.5l3.15.236-.329,2.618a47.051,47.051,0,0,1,6.669-3.9,9.094,9.094,0,0,1,2.758-.768,5.429,5.429,0,0,1,1.807.27,33.806,33.806,0,0,0,8.084,1.464v-3.85a31.955,31.955,0,0,1-7.366-1.356Z" transform="translate(-18.252 -87.782)" fill="#008047"/>
  <path id="Path_10" data-name="Path 10" d="M83.717,148.367a33.939,33.939,0,0,1-11.671,2.281,33.947,33.947,0,0,1-11.671-2.281l-.151-.057-.029.158c-2.038,11.063,1.921,20.659,11.767,28.523l.085.067.085-.067c9.846-7.863,13.805-17.46,11.767-28.523l-.029-.158-.151.057Z" transform="translate(-42.668 -105.984)"/>
  <path id="Path_11" data-name="Path 11" d="M72.724,151.825a34.14,34.14,0,0,0,11.611-2.244,30.056,30.056,0,0,1,.489,5.307c0,8.648-4.056,16.274-12.1,22.73-8.045-6.456-12.1-14.082-12.1-22.73a30.055,30.055,0,0,1,.489-5.307A34.142,34.142,0,0,0,72.724,151.825Z" transform="translate(-43.346 -106.892)" fill="#fff"/>
  <path id="Path_12" data-name="Path 12" d="M75.909,180.863V157.822a32.163,32.163,0,0,1-10.589-1.773c-1.282,9.812,2.68,17.67,10.589,24.814Z" transform="translate(-46.531 -111.512)" fill="#cd3529"/>
  <path id="Path_13" data-name="Path 13" d="M86.445,172.38a6.569,6.569,0,1,1-6.6,6.569A6.6,6.6,0,0,1,86.445,172.38Z" transform="translate(-57.074 -123.177)" fill="#ffd400"/>
  <path id="Path_14" data-name="Path 14" d="M79.371,178.611a6.736,6.736,0,1,0,6.736-6.7A6.727,6.727,0,0,0,79.371,178.611Zm.271,0a6.465,6.465,0,1,1,6.465,6.434A6.457,6.457,0,0,1,79.642,178.611Z" transform="translate(-56.737 -122.839)"/>
  <path id="Path_15" data-name="Path 15" d="M79.416,178.846a6.588,6.588,0,0,0,1.989,2.129l.158-.218a6.314,6.314,0,0,1-1.909-2.037Zm3.178,1.254.206-.174c-1.516-1.776-1.183-4.792.76-6.865l-.2-.184c-2.034,2.172-2.371,5.345-.768,7.223Zm3.007-3.952.259-.078c-.5-1.625-.006-2.646,1.643-3.413l-.115-.244C85.614,173.238,85.063,174.39,85.6,176.148Zm3.449,2.494c1.55,1.6,1.895,4.119.769,5.617l.217.161c1.222-1.627.874-4.247-.791-5.966Zm1.506-1.653a4.872,4.872,0,0,1,1.767,3.869l.271.007a5.142,5.142,0,0,0-1.866-4.084Zm-3.63,3.366c1.094,2.021.922,4.089-.419,5.029l.156.22c1.456-1.021,1.662-3.232.5-5.377Z" transform="translate(-56.769 -123.2)"/>
  <path id="Path_16" data-name="Path 16" d="M96.763,207.417l-.04.266a3.371,3.371,0,0,0,3.456-1.714l-.244-.115A3.092,3.092,0,0,1,96.763,207.417Z" transform="translate(-69.131 -147.087)"/>
  <path id="Path_17" data-name="Path 17" d="M93.475,155.481a33.911,33.911,0,0,1-4.2,1.141l-.04.008L74.926,170.824l.048.089a30.531,30.531,0,0,0,2.667,4.068l.093.121L93.89,159.075v-.057a27.932,27.932,0,0,0-.237-3.427l-.021-.163Z" transform="translate(-53.562 -111.068)"/>
  <path id="Path_18" data-name="Path 18" d="M94.239,156.688a27.521,27.521,0,0,1,.217,3.178L78.6,175.593a30.224,30.224,0,0,1-2.5-3.821l14.106-13.994A34.162,34.162,0,0,0,94.239,156.688Z" transform="translate(-54.4 -111.968)" fill="#0072bc"/>
  <path id="Path_19" data-name="Path 19" d="M83.115,180.023l.377-.375a.7.7,0,0,0,.47.2.61.61,0,0,0,.447-.194.672.672,0,0,0,.221-.471.627.627,0,0,0-.206-.465.564.564,0,0,0-.381-.189,1.325,1.325,0,0,0-.589.211l-.067.04a1.316,1.316,0,0,1-.828.227.951.951,0,0,1-.306-.084.922.922,0,0,1-.258-.183,1.059,1.059,0,0,1-.344-.783,1.121,1.121,0,0,1,.365-.792,1.062,1.062,0,0,1,.73-.342,1.083,1.083,0,0,1,.756.3l-.393.391a.524.524,0,0,0-.748.022.528.528,0,0,0-.171.39.554.554,0,0,0,.178.394.484.484,0,0,0,.136.1.452.452,0,0,0,.163.039,1.074,1.074,0,0,0,.531-.2c.107-.065.193-.113.253-.145a1.3,1.3,0,0,1,.729-.142,1.039,1.039,0,0,1,.61.312,1.157,1.157,0,0,1,0,1.74,1.162,1.162,0,0,1-.834.371A1.18,1.18,0,0,1,83.115,180.023Zm4.457-2.875-.4.4-.46-.457.4-.4Zm3.06-3.045-1.372,1.365-2.719-2.706.421-.418,2.343,2.332.951-.947Zm1.92-1.91-.4.4-.46-.458.4-.4Zm.525-3.667.133-.133a1.211,1.211,0,0,0,.371-.553.477.477,0,0,0-.166-.442.456.456,0,0,0-.405-.153.932.932,0,0,0-.475.293l-.225.224.768.764Zm1.208,1.211.331-.329a1.019,1.019,0,0,0,.327-.529.511.511,0,0,0-.177-.45.608.608,0,0,0-.494-.206.918.918,0,0,0-.543.3l-.331.329Zm-2.14-2.551a1.59,1.59,0,0,1,.9-.513.941.941,0,0,1,.8.312.784.784,0,0,1,.218.374.849.849,0,0,1-.016.44.857.857,0,0,1,.566-.106.951.951,0,0,1,.529.28,1.216,1.216,0,0,1,.282.431,1.07,1.07,0,0,1,.067.485,1.132,1.132,0,0,1-.148.445,2.686,2.686,0,0,1-.425.512l-.669.666-2.719-2.706Zm5.774-.335-.4.4-.459-.457.4-.4Z" transform="translate(-58.365 -118.901)" fill="#ffd400"/>
  <path id="Path_20" data-name="Path 20" d="M86.107,155.47a32.368,32.368,0,0,1-21.091,0l-.156-.053-.022.163c-1.222,9.354,2.157,17.276,10.632,24.931l.091.082.091-.082c8.476-7.655,11.854-15.577,10.632-24.931l-.022-.163ZM64.867,159.2a27.666,27.666,0,0,1,.224-3.425,32.578,32.578,0,0,0,20.942,0,27.606,27.606,0,0,1,.223,3.425c0,7.7-3.46,14.46-10.694,21.025C68.328,173.662,64.867,166.9,64.867,159.2Z" transform="translate(-46.183 -111.06)"/>
  <path id="Path_21" data-name="Path 21" d="M125.117,128.43c-3.382-1.986-5.073-2.841-6.436-3.5a21.158,21.158,0,0,0-5.9-2.084,7.423,7.423,0,0,0-2.442.289,31.956,31.956,0,0,1-7.365,1.356v3.851a33.8,33.8,0,0,0,8.084-1.464,5.426,5.426,0,0,1,1.807-.269,9.093,9.093,0,0,1,2.758.768,47.023,47.023,0,0,1,6.669,3.9l-.329-2.618Z" transform="translate(-73.599 -87.782)" fill="#cd3529"/>
  <path id="Path_22" data-name="Path 22" d="M53.866,122.671l-1.168.3a25.3,25.3,0,0,1-6.165,1.055,25.3,25.3,0,0,1-6.166-1.056l-1.168-.3a7.448,7.448,0,0,0-2.492-.292,20.585,20.585,0,0,0-5.936,2.1c-1.285.617-2.949,1.447-6.446,3.5l-.371.218,3.438.257-.348,2.768.9-.587a41.4,41.4,0,0,1,6-3.467,8.977,8.977,0,0,1,2.715-.757,4.654,4.654,0,0,1,1.57.217l1.236.314a28.618,28.618,0,0,0,7.074,1.2,28.62,28.62,0,0,0,7.074-1.2l1.236-.314a4.652,4.652,0,0,1,1.57-.217,8.959,8.959,0,0,1,2.715.757,41.376,41.376,0,0,1,6,3.467l.9.587-.349-2.768,3.438-.257-.371-.218c-3.5-2.054-5.161-2.884-6.446-3.5a20.593,20.593,0,0,0-5.936-2.1A7.439,7.439,0,0,0,53.866,122.671Zm-1.1.557,1.164-.3a7.228,7.228,0,0,1,2.393-.286,20.359,20.359,0,0,1,5.854,2.072c1.233.592,2.822,1.385,6.053,3.273l-2.86.214.311,2.469-.406-.266a41.566,41.566,0,0,0-6.039-3.49,9.087,9.087,0,0,0-2.8-.778,4.929,4.929,0,0,0-1.658.225l-1.237.314a28.414,28.414,0,0,1-7.007,1.195,28.423,28.423,0,0,1-7.007-1.195l-1.237-.314a4.929,4.929,0,0,0-1.658-.225,9.089,9.089,0,0,0-2.8.778,41.549,41.549,0,0,0-6.039,3.49l-.406.266.311-2.469-2.86-.214c3.232-1.888,4.82-2.681,6.053-3.273a20.355,20.355,0,0,1,5.854-2.072,7.221,7.221,0,0,1,2.393.286l1.164.3a25.507,25.507,0,0,0,6.234,1.065,25.486,25.486,0,0,0,6.233-1.065Z" transform="translate(-17.154 -87.445)"/>
  <path id="Path_23" data-name="Path 23" d="M82.032,129.378l-.355-.143.161-.633q.044-.163.1-.322a1.822,1.822,0,0,1-.142.2l-.029.036-.453.574-.253-.1.075-.726c0-.01,0-.025.005-.045a1.728,1.728,0,0,1,.036-.24q-.038.076-.076.15c-.026.049-.053.1-.081.147l-.325.567-.353-.142.778-1.3.376.151-.08.8,0,.027a1,1,0,0,1-.029.179.707.707,0,0,1,.048-.077c.019-.027.043-.059.073-.1l.5-.628.377.152Zm-3.456-2.519.4.057-.1.721c-.012.076-.02.153-.024.229a.45.45,0,0,0,.011.12.173.173,0,0,0,.069.1.309.309,0,0,0,.137.049.3.3,0,0,0,.145-.01.176.176,0,0,0,.094-.075.437.437,0,0,0,.044-.112c.017-.075.031-.151.04-.227l.014-.1.087-.619.4.057-.111.783a1.608,1.608,0,0,1-.08.355.488.488,0,0,1-.128.184.468.468,0,0,1-.228.106,1.2,1.2,0,0,1-.647-.091.473.473,0,0,1-.191-.164.5.5,0,0,1-.071-.212,1.552,1.552,0,0,1,.021-.364l.022-.154ZM76.2,128.886l-.389-1.445.382-.1.749.6c.014.012.04.038.077.078s.078.087.124.142c-.021-.051-.041-.1-.06-.155s-.027-.081-.039-.123l-.192-.714.38-.1.389,1.445-.38.1-.75-.6a.945.945,0,0,1-.078-.077c-.036-.039-.077-.086-.122-.14.024.059.044.11.061.156s.029.087.039.123l.192.714Zm-2.423-.919.395-.105.189.7a2.223,2.223,0,0,0,.068.221.432.432,0,0,0,.058.106.17.17,0,0,0,.1.063.31.31,0,0,0,.145-.008.313.313,0,0,0,.13-.065.177.177,0,0,0,.057-.106.447.447,0,0,0,0-.12c-.014-.076-.031-.151-.052-.225l-.027-.1-.163-.6.394-.1.206.764a1.591,1.591,0,0,1,.065.358.485.485,0,0,1-.045.219.462.462,0,0,1-.169.186,1.2,1.2,0,0,1-.631.168.47.47,0,0,1-.24-.077.5.5,0,0,1-.149-.167,1.59,1.59,0,0,1-.124-.343l-.04-.15-.165-.614ZM71.211,129.5a.728.728,0,0,0,.2.121.35.35,0,0,0,.183.02.2.2,0,0,0,.125-.067.138.138,0,0,0,.033-.119.145.145,0,0,0-.065-.105.578.578,0,0,0-.218-.046.68.68,0,0,1-.335-.1.362.362,0,0,1-.135-.241.458.458,0,0,1,.081-.37.523.523,0,0,1,.345-.2.829.829,0,0,1,.238-.008.767.767,0,0,1,.225.063l-.075.311a.546.546,0,0,0-.157-.063.391.391,0,0,0-.148,0,.194.194,0,0,0-.112.055.108.108,0,0,0-.03.1.111.111,0,0,0,.056.082.438.438,0,0,0,.165.037l.019,0a.768.768,0,0,1,.35.089.367.367,0,0,1,.1.116.5.5,0,0,1,.057.164.494.494,0,0,1-.088.4.59.59,0,0,1-.387.215.745.745,0,0,1-.291,0,.813.813,0,0,1-.273-.121Zm-2.16-.841.408-.029.051.726c.008.107.016.183.024.229a.441.441,0,0,0,.036.115.169.169,0,0,0,.087.082.314.314,0,0,0,.145.02.309.309,0,0,0,.14-.04.177.177,0,0,0,.076-.093.455.455,0,0,0,.02-.119,2.3,2.3,0,0,0-.008-.231l-.007-.1-.043-.624.406-.028.055.789a1.58,1.58,0,0,1,0,.364.487.487,0,0,1-.087.207.465.465,0,0,1-.2.151,1.022,1.022,0,0,1-.323.068,1.041,1.041,0,0,1-.33-.022.478.478,0,0,1-.221-.121.5.5,0,0,1-.114-.193,1.605,1.605,0,0,1-.055-.36l-.011-.155-.043-.634Zm-13.2.687-.587-1.377.848-.358.129.3-.48.2.1.239.453-.191.126.3-.453.191.1.233.48-.2.131.309Zm3.185-.94-.384.013-.052-1.5.428-.015a1.766,1.766,0,0,1,.354.012.413.413,0,0,1,.175.078.437.437,0,0,1,.133.166.585.585,0,0,1,.051.227.593.593,0,0,1-.035.237.411.411,0,0,1-.121.171.4.4,0,0,1-.148.075,1.238,1.238,0,0,1-.275.031l-.07,0-.074,0Zm-.029-.822.078,0a.379.379,0,0,0,.2-.048.155.155,0,0,0,.054-.139.153.153,0,0,0-.062-.132.377.377,0,0,0-.2-.033l-.082,0Zm1.421.987.389-1.445.4.105-.3,1.107.492.131-.091.338-.888-.237Zm1.9-1.05.395.105-.189.7c-.021.074-.039.149-.052.225a.434.434,0,0,0,0,.12.168.168,0,0,0,.056.106.308.308,0,0,0,.13.066.313.313,0,0,0,.145.008.176.176,0,0,0,.1-.063.44.44,0,0,0,.057-.106c.017-.044.04-.117.068-.221l.027-.1.163-.6.394.1-.206.764a1.6,1.6,0,0,1-.123.343.494.494,0,0,1-.149.167.471.471,0,0,1-.24.077,1.2,1.2,0,0,1-.632-.168.475.475,0,0,1-.169-.186.5.5,0,0,1-.045-.219,1.57,1.57,0,0,1,.065-.359l.041-.15Zm1.625,1.945.338-1.458.417.1a1.808,1.808,0,0,1,.337.1.455.455,0,0,1,.149.114.4.4,0,0,1,.086.18.5.5,0,0,1-.005.214.446.446,0,0,1-.147.256.419.419,0,0,1-.276.085l.263.679-.451-.1-.2-.648-.133.571-.374-.087Zm.553-.683.074.017a.333.333,0,0,0,.2,0,.166.166,0,0,0,.092-.124.2.2,0,0,0-.02-.169.3.3,0,0,0-.176-.089l-.08-.018Zm1.233,1.053L66,128.362l.407.071-.261,1.473Z" transform="translate(-39.516 -90.661)"/>
  <path id="Path_24" data-name="Path 24" d="M68.364,128.1l-.1,0,.013.381.093,0a.392.392,0,0,0,.213-.051.17.17,0,0,0,.06-.152.165.165,0,0,0-.069-.144A.389.389,0,0,0,68.364,128.1Zm0,.03a.366.366,0,0,1,.2.03.136.136,0,0,1,.055.12v.01a.136.136,0,0,1-.048.117.367.367,0,0,1-.2.045l-.063,0-.011-.322Zm5.507,1.151-.092.4.089.021a.341.341,0,0,0,.209,0,.178.178,0,0,0,.1-.134.212.212,0,0,0-.022-.181.31.31,0,0,0-.184-.095l-.095-.022Zm.026.021.065.015a.286.286,0,0,1,.167.084.14.14,0,0,1,.026.087.3.3,0,0,1-.009.069.15.15,0,0,1-.083.113.318.318,0,0,1-.189,0l-.059-.013Z" transform="translate(-48.805 -91.549)" fill="#4a914e"/>
  <path id="Path_25" data-name="Path 25" d="M92.117,95.753v.016h.016a2.219,2.219,0,0,0,.6-.267,3.034,3.034,0,0,1,.326-.164l-.01-.031a2.92,2.92,0,0,0-.331.166,2.59,2.59,0,0,1-.564.259,1.231,1.231,0,0,1,.532-1.042l-.021-.025A1.258,1.258,0,0,0,92.117,95.753Z" transform="translate(-65.841 -67.666)"/>
  <path id="Path_26" data-name="Path 26" d="M116.422,71.5a.608.608,0,0,1-.794-.305,1.109,1.109,0,0,1-1.224.111l-2.137-2.894.325-2.926a2.872,2.872,0,0,0,1.394.305c1.612-.167.258-1.39,2.591-2.446a4.326,4.326,0,0,1,2.966-2.2c3.865-.759,8.955-.357,12.924-.39l5.079-.042a3.43,3.43,0,0,1-2.5,1.493,2.407,2.407,0,0,1-1.556,1.454c-.057.279-.264,1.095-2.233,1.787-.418,1.133-2.452,1.953-4.285,2.295-.46.908-2.076,1.194-2.859,1.078a1.147,1.147,0,0,1-.857.539c.038.1.078.548-.479.433.108.353.035.55-.127.651a1.112,1.112,0,0,1-.686.073.413.413,0,0,1-.436.3,1.417,1.417,0,0,1-.666-.165c0,.3-.2.389-.469.369a1.374,1.374,0,0,1-.79-.323c-.051.319-.343.451-.654.464a1.281,1.281,0,0,1-.592-.114.407.407,0,0,1-.437.355,1.09,1.09,0,0,1-.875-.542A1.032,1.032,0,0,1,116.422,71.5Z" transform="translate(-80.234 -43.384)" fill="#ffd400"/>
  <path id="Path_27" data-name="Path 27" d="M119.123,60.619a4.5,4.5,0,0,0-3.041,2.236,2.551,2.551,0,0,0-1.632,1.707c-.136.411-.21.637-.871.705a2.712,2.712,0,0,1-1.309-.29l-.195-.1-.355,3.2,2.2,2.975.04.016a1.291,1.291,0,0,0,1.234-.051.755.755,0,0,0,.889.247,1.173,1.173,0,0,0,.6-.489,1.269,1.269,0,0,0,.85.4.583.583,0,0,0,.53-.315,1.475,1.475,0,0,0,.5.074.819.819,0,0,0,.717-.372,1.669,1.669,0,0,0,.71.231.617.617,0,0,0,.485-.134.432.432,0,0,0,.11-.171,1.506,1.506,0,0,0,.555.1.573.573,0,0,0,.525-.293,1.108,1.108,0,0,0,.671-.1.528.528,0,0,0,.249-.481,1.051,1.051,0,0,0-.011-.131.464.464,0,0,0,.351-.148.488.488,0,0,0,.108-.321h0a1.431,1.431,0,0,0,.779-.512,3.253,3.253,0,0,0,2.856-1.1c1.7-.326,3.8-1.119,4.307-2.312,1.3-.469,2.054-1.073,2.245-1.8a2.528,2.528,0,0,0,1.54-1.435c.815-.186,2.153-.626,2.536-1.565l.085-.208-5.3.044c-1.056.009-2.177-.013-3.364-.036a48.48,48.48,0,0,0-9.587.429Zm-5.512,4.946a1.093,1.093,0,0,0,1.125-.909,2.281,2.281,0,0,1,1.512-1.549l.046-.021.024-.044a4.191,4.191,0,0,1,2.863-2.129,47.518,47.518,0,0,1,9.524-.423c1.189.023,2.313.045,3.373.036l4.825-.04a3.685,3.685,0,0,1-2.282,1.2l-.077.017-.03.072a2.271,2.271,0,0,1-1.473,1.373l-.075.03-.016.079c-.135.661-.853,1.225-2.136,1.676l-.067.023-.024.066c-.39,1.055-2.376,1.865-4.172,2.2l-.073.014-.033.066c-.432.853-1.989,1.1-2.7,1l-.131-.019-.036.127a1.056,1.056,0,0,1-.7.431l-.243-.028.085.228a.254.254,0,0,1-.025.2c-.057.066-.2.048-.282.031l-.248-.051.074.241c.113.37-.019.453-.063.48a.918.918,0,0,1-.587.052l-.134-.017-.032.13c-.012.048-.044.177-.3.186a1.262,1.262,0,0,1-.587-.147l-.227-.125,0,.258a.215.215,0,0,1-.05.165.352.352,0,0,1-.257.053,1.225,1.225,0,0,1-.69-.275l-.21-.229-.049.306c-.045.277-.34.331-.512.338a1.138,1.138,0,0,1-.519-.1l-.2-.1-.019.218c-.017.2-.226.217-.289.218a.95.95,0,0,1-.729-.441L116.647,70l-.138.431a.885.885,0,0,1-.528.547.463.463,0,0,1-.609-.231l-.087-.172-.146.126a.943.943,0,0,1-1.033.1L112.031,68l.3-2.669A2.992,2.992,0,0,0,113.611,65.565Z" transform="translate(-79.843 -43.012)"/>
  <path id="Path_28" data-name="Path 28" d="M26.629,66a1.716,1.716,0,0,1-.727.163,1.1,1.1,0,0,1-.592-.2.942.942,0,0,1-.821.521.851.851,0,0,1-.762-.552c-.2.294-.625.786-1.072.78-.175,0-.323-.114-.394-.417a1.787,1.787,0,0,1-.6.177c-.259.019-.471-.063-.453-.366a1.929,1.929,0,0,1-.873.286c-.237,0-.4-.1-.327-.405a1.214,1.214,0,0,1-.728.226.351.351,0,0,1-.329-.289,1.113,1.113,0,0,1-.742-.169.685.685,0,0,1-.321-.657c-.737.166-.756-.4-.718-.506-.241-.054-.632-.2-.737-.452-.945-.025-2.172-.078-2.828-.892,0,0,.023-.068-.015-.069-1.495-.064-3.617-.832-4.035-1.964-1.771-.66-2.327-1.377-2.483-1.738C6.1,59.154,5.311,58.8,5.1,58.053c-1.16-.183-2.526-.986-2.782-1.815l5.549-.031c3.969-.022,9.059-.442,12.924.317a5.455,5.455,0,0,1,3.244,2.541c1.437.033,1.874,2.336,2.986,2.357.4.007,1.029-.373,1.54-1.313a2.151,2.151,0,0,1-.626.09,1.869,1.869,0,0,1-.53-.079,1.35,1.35,0,0,0,.861-1.388,1.318,1.318,0,0,1-.841.03,1.29,1.29,0,0,0,.259-.957,1.413,1.413,0,0,1-.678.353,1.438,1.438,0,0,0-.107-.69c-.412-.925-1.745-.618-1.719-1.611a.914.914,0,0,0,.661.334.551.551,0,0,0,.4-.17.43.43,0,0,0,.091-.271.7.7,0,0,0-.134-.4.932.932,0,0,0-.832-.377,2.56,2.56,0,0,0-1.1.352,1.381,1.381,0,0,1,1.489-1.2,1.408,1.408,0,0,1,1.044.4,1.383,1.383,0,0,1,1.576-.021,5.8,5.8,0,0,0,3.064.6,1.238,1.238,0,0,1-.857.581,5.214,5.214,0,0,1,1.553.191c-.32.15-.591.334-.867.484a3.858,3.858,0,0,1,1.385.271c-.334.077-.539.212-.593.386.246.227.685.225,1.126.346a1.509,1.509,0,0,1,1.084.955,1.753,1.753,0,0,0-.724.133,3.405,3.405,0,0,1,1.117,1.278,1.8,1.8,0,0,0-.709.163,4.7,4.7,0,0,1,1.182,1.177,6.041,6.041,0,0,0-.893.178,3.163,3.163,0,0,1,1.037,1.135,2.139,2.139,0,0,0-.63-.045,4.026,4.026,0,0,1,1.116,1.6,2.6,2.6,0,0,0-.625-.144,4.628,4.628,0,0,1,.255,1.191,2.566,2.566,0,0,1,1.235,2.4,1.917,1.917,0,0,0-.615-.213,1.877,1.877,0,0,1,.085,1.641,1.386,1.386,0,0,0-.478-.4A3.529,3.529,0,0,1,35.33,70l-.235-.386c-.288.617-.885,1.371-1.43,1.2a4.721,4.721,0,0,1-1.64.949,3.2,3.2,0,0,0-.41-.331,2.813,2.813,0,0,0-.535.616,2.657,2.657,0,0,0-.487-.522l-.6.222c-1.286-.876-2.466-1.108-2.332-2.359a1.56,1.56,0,0,0-.463.366,4.488,4.488,0,0,1-.074-1.769,1.429,1.429,0,0,0-.551.169,2.682,2.682,0,0,1,.272-1.377,1.052,1.052,0,0,0-.563.356A2,2,0,0,1,26.629,66Z" transform="translate(-1.7 -38.712)" fill="#ffd400"/>
  <path id="Path_29" data-name="Path 29" d="M25.247,53.608a1.528,1.528,0,0,0-1.638,1.337l-.022.289.249-.15a2.406,2.406,0,0,1,1.031-.331.776.776,0,0,1,.705.315.546.546,0,0,1,.105.308.279.279,0,0,1-.058.178.393.393,0,0,1-.281.114.776.776,0,0,1-.549-.283l-.253-.283-.01.378c-.017.634.454.833.87,1.008a1.421,1.421,0,0,1,.861.667,1.288,1.288,0,0,1,.094.621l-.011.2.192-.04a1.441,1.441,0,0,0,.5-.208,1.331,1.331,0,0,1-.234.573l-.131.168.2.065a1.51,1.51,0,0,0,.728.03,1.138,1.138,0,0,1-.763,1.049l-.365.163.383.116a2.033,2.033,0,0,0,.572.086,2.166,2.166,0,0,0,.323-.022c-.431.659-.914.953-1.233.947-.446-.008-.8-.491-1.172-1-.441-.6-.941-1.279-1.727-1.344A5.607,5.607,0,0,0,20.316,56a48.163,48.163,0,0,0-9.9-.383c-1.074.03-2.089.059-3.051.064l-5.752.032.059.192c.276.9,1.659,1.691,2.817,1.9.271.765,1.11,1.125,1.97,1.417.193.393.768,1.084,2.478,1.733.5,1.178,2.6,1.9,4.027,1.989l.017.021a3.688,3.688,0,0,0,2.859.945,1.23,1.23,0,0,0,.665.417.606.606,0,0,0,.143.377.671.671,0,0,0,.591.183.834.834,0,0,0,.379.614,1.26,1.26,0,0,0,.728.2.492.492,0,0,0,.412.282,1.241,1.241,0,0,0,.6-.121.376.376,0,0,0,.067.14.493.493,0,0,0,.41.16,1.932,1.932,0,0,0,.755-.2.407.407,0,0,0,.1.147.6.6,0,0,0,.486.136,1.828,1.828,0,0,0,.5-.129.522.522,0,0,0,.487.37,1.518,1.518,0,0,0,1.061-.661.947.947,0,0,0,.774.433,1.058,1.058,0,0,0,.867-.481,1.231,1.231,0,0,0,.541.162,1.511,1.511,0,0,0,.42-.05,2.172,2.172,0,0,0-.185.867v.35l.336-.32c.033-.033.064-.061.1-.087a2.835,2.835,0,0,0-.14,1.087l.014.229.205-.1a1.243,1.243,0,0,1,.314-.12c-.018.189-.031.392-.031.6a3.359,3.359,0,0,0,.132,1.032l.077.222.238-.229c.049-.047.094-.088.138-.127.045.82.689,1.193,1.49,1.649.293.166.6.338.91.553l.064.044.584-.216a2.541,2.541,0,0,1,.4.437l.127.175.12-.181a2.718,2.718,0,0,1,.423-.5l.011.009a1.923,1.923,0,0,1,.274.227l.073.081.421-.187a4.019,4.019,0,0,0,1.3-.785c.514.087,1.047-.431,1.393-1.047l.236.388.123-.241a3.361,3.361,0,0,0,.3-1.383,1.548,1.548,0,0,1,.221.224l.174.215.086-.262a2.723,2.723,0,0,0,.155-.848,1.737,1.737,0,0,0-.127-.621,1.934,1.934,0,0,1,.289.127l.206.111.015-.233c.005-.078.008-.154.008-.229a2.693,2.693,0,0,0-1.253-2.262,4.626,4.626,0,0,0-.187-.924,2.142,2.142,0,0,1,.362.1l.284.11-.085-.291a3.758,3.758,0,0,0-.9-1.4,2.258,2.258,0,0,1,.239.037l.3.065-.132-.275a3.044,3.044,0,0,0-.826-.988c.188-.042.377-.09.564-.113l.232-.028-.122-.2a4.35,4.35,0,0,0-1-1.047,1.883,1.883,0,0,1,.408-.065l.206-.009L34.3,59.31a3.159,3.159,0,0,0-.953-1.164,1.929,1.929,0,0,1,.419-.045h.224l-.085-.207a1.649,1.649,0,0,0-1.183-1.042l-.424-.092a1.9,1.9,0,0,1-.543-.154.9.9,0,0,1,.427-.2l.405-.094-.372-.185a2.783,2.783,0,0,0-.963-.243L32,55.476l-.325-.11a4.529,4.529,0,0,0-.941-.171.975.975,0,0,0,.337-.4l.126-.284-.3.079a5.678,5.678,0,0,1-2.955-.584,1.537,1.537,0,0,0-1.625-.025,1.643,1.643,0,0,0-1.065-.375Zm0,.3a1.258,1.258,0,0,1,.927.347l.089.109.115-.081a1.242,1.242,0,0,1,1.419-.011,6.753,6.753,0,0,0,2.777.658,1.6,1.6,0,0,1-.539.242l-1.148.308,1.189-.013a5.67,5.67,0,0,1,1.143.1l-.229.125-.715.412.471.043.136.012a5.238,5.238,0,0,1,.833.118.624.624,0,0,0-.307.335l-.027.089.069.064a1.543,1.543,0,0,0,.789.295l.4.086a1.338,1.338,0,0,1,.895.681,1.745,1.745,0,0,0-.558.127l-.222.1.192.151a3.814,3.814,0,0,1,.98,1.041,1.864,1.864,0,0,0-.544.148l-.221.106.2.148a5.165,5.165,0,0,1,1.011.949,6.22,6.22,0,0,0-.671.143l-.3.084.254.181a3.392,3.392,0,0,1,.839.823,1.962,1.962,0,0,0-.359,0l-.321.033.232.223A4.432,4.432,0,0,1,35,63.336q-.174-.039-.351-.06l-.238-.029.077.226a4.444,4.444,0,0,1,.247,1.153l0,.069.055.041a2.424,2.424,0,0,1,1.182,2.056,2.013,2.013,0,0,0-.448-.134l-.309-.048.155.27a1.49,1.49,0,0,1,.212.767,2.164,2.164,0,0,1-.075.506,1.361,1.361,0,0,0-.336-.24l-.215-.1v.243A3.936,3.936,0,0,1,34.8,69.3l-.226-.371-.119.255c-.3.64-.837,1.249-1.248,1.117l-.087-.028-.065.065a3.613,3.613,0,0,1-1.272.774l-.232.1a2.933,2.933,0,0,0-.235-.19l-.208-.155-.093.077a2.881,2.881,0,0,0-.442.488,2.662,2.662,0,0,0-.388-.4l-.067-.053-.608.225c-.3-.2-.6-.372-.864-.523-.8-.454-1.346-.765-1.346-1.484a1.594,1.594,0,0,1,.009-.169l.025-.237-.225.08a1.015,1.015,0,0,0-.328.224,3.935,3.935,0,0,1-.058-.709,6.116,6.116,0,0,1,.048-.757l.025-.195-.2.027a1.756,1.756,0,0,0-.379.088,2.492,2.492,0,0,1,.256-1.08l.146-.291-.317.08a1.108,1.108,0,0,0-.337.138,1.811,1.811,0,0,1,.281-.682l.293-.421-.474.2a1.559,1.559,0,0,1-.663.151.94.94,0,0,1-.513-.176l-.135-.092-.08.141a.8.8,0,0,1-.689.445.7.7,0,0,1-.625-.462l-.11-.25-.153.226c-.225.332-.607.718-.946.714-.049,0-.179,0-.249-.3l-.043-.183-.17.083a1.638,1.638,0,0,1-.547.161.34.34,0,0,1-.252-.05.2.2,0,0,1-.04-.157l.018-.289-.247.153a1.781,1.781,0,0,1-.794.263.232.232,0,0,1-.173-.047.222.222,0,0,1-.007-.174l.109-.46-.362.321a1.1,1.1,0,0,1-.6.182.2.2,0,0,1-.2-.175l-.032-.131-.134.017a.968.968,0,0,1-.639-.145.538.538,0,0,1-.255-.518l.02-.207-.2.046a.518.518,0,0,1-.466-.059A.321.321,0,0,1,16.8,64.3a.167.167,0,0,1,0-.036l.039-.149-.148-.045c-.255-.058-.561-.2-.631-.363l-.037-.089-.1,0a3.645,3.645,0,0,1-2.682-.8.158.158,0,0,0-.159-.157c-1.543-.066-3.524-.849-3.9-1.866l-.024-.065L9.1,60.7c-1.81-.675-2.279-1.383-2.4-1.657l-.027-.061-.064-.021c-1.022-.343-1.691-.685-1.87-1.323l-.026-.093-.1-.015a3.841,3.841,0,0,1-2.57-1.518l5.315-.03c.965-.005,1.981-.034,3.057-.064a47.975,47.975,0,0,1,9.837.378A5.348,5.348,0,0,1,23.4,58.763l.042.076.087,0c.689.016,1.141.634,1.577,1.231.419.573.814,1.115,1.41,1.125.42.008,1.11-.352,1.675-1.392l.172-.316-.346.1a2.01,2.01,0,0,1-.583.083c-.034,0-.065-.013-.1-.015a1.455,1.455,0,0,0,.576-1.22l.013-.315-.221.1a1.152,1.152,0,0,1-.535.053,1.534,1.534,0,0,0,.185-.673.8.8,0,0,0-.026-.209l-.062-.229-.181.153a1.39,1.39,0,0,1-.433.269,1.483,1.483,0,0,0-.117-.553,1.676,1.676,0,0,0-1.019-.822,1.488,1.488,0,0,1-.552-.332.911.911,0,0,0,.376.087.7.7,0,0,0,.5-.214.581.581,0,0,0,.135-.376.839.839,0,0,0-.162-.485,1.083,1.083,0,0,0-.958-.439,2.436,2.436,0,0,0-.886.226,1.314,1.314,0,0,1,1.276-.772Zm-12.3,8.922v0Z" transform="translate(-1.193 -38.339)"/>
  <path id="Path_30" data-name="Path 30" d="M84.924,104.262c-.024.858-.3,2.413-1.065,2.959-.649.461-1.575.144-2.057.791l.06.388a2.019,2.019,0,0,0,1.655-.477c-.5.353-.815.578-.875,1.161.2.041.289.212.422.293a5.387,5.387,0,0,0,.854-1.057,11.2,11.2,0,0,0-.244,1.111,1.5,1.5,0,0,1,.516,0,5.039,5.039,0,0,0,.543-1.447,6.371,6.371,0,0,0,1.187-.151c.192-.032.4.018.653-.022a3.854,3.854,0,0,0,0-.523,8.045,8.045,0,0,1-1.1-.557c-.2-.447.063-1.167.209-1.912a1.221,1.221,0,0,1-.573-.667A1.13,1.13,0,0,0,84.924,104.262Z" transform="translate(-58.474 -74.441)" fill="#ffd400"/>
  <path id="Path_31" data-name="Path 31" d="M84.659,103.464l-.291.167.009.076c-.024.873-.311,2.351-1,2.841a2.011,2.011,0,0,1-.9.28,1.624,1.624,0,0,0-1.193.545l-.037.05.089.575.3,0a2.88,2.88,0,0,0,.632-.032,1.351,1.351,0,0,0-.169.549l-.013.134.132.028a.466.466,0,0,1,.214.142l.268.22.08-.113.091-.094c.1-.1.2-.211.315-.342a1.543,1.543,0,0,0-.055.387v.176l.175-.028a1.351,1.351,0,0,1,.465,0l.114.021.142-.3a4.774,4.774,0,0,0,.445-1.172,5.368,5.368,0,0,0,.834-.1l.249-.044.255-.007a1.976,1.976,0,0,0,.4-.015l.125-.02v-.109l.008-.386-.007-.262-.1-.036a2.053,2.053,0,0,1-.539-.255,5.059,5.059,0,0,0-.48-.265.858.858,0,0,1-.047-.29,4.612,4.612,0,0,1,.161-.957l.142-.639-.1-.05a1.066,1.066,0,0,1-.5-.585l-.06-.171Zm-2.135,3.66a2.266,2.266,0,0,0,1.027-.332c.8-.567,1.073-2.052,1.119-2.939a1.381,1.381,0,0,0,.453.481l-.094.424a4.754,4.754,0,0,0-.169,1.025,1.1,1.1,0,0,0,.087.458l.023.05.05.024a4.58,4.58,0,0,1,.51.278,2.46,2.46,0,0,0,.5.25l0,.061,0,.216c-.074,0-.146.005-.215,0l-.315.011-.253.045a4.664,4.664,0,0,1-.909.1h-.15v.15a3.992,3.992,0,0,1-.436,1.188l-.048.1a1.6,1.6,0,0,0-.254-.006,2.518,2.518,0,0,1,.093-.386,2.6,2.6,0,0,0,.13-.545l.068-.665-.347.573a4.775,4.775,0,0,1-.737.93l-.019-.016a1.019,1.019,0,0,0-.218-.157c.079-.437.335-.635.788-.955l-.173-.245a1.761,1.761,0,0,1-1.4.453H81.6l-.029-.189a1.434,1.434,0,0,1,.957-.387Z" transform="translate(-58.078 -73.891)"/>
  <path id="Path_32" data-name="Path 32" d="M84.209,122.4a1,1,0,0,1,.024-.945,1.439,1.439,0,0,1,.494.247A2.9,2.9,0,0,0,84.209,122.4Z" transform="translate(-60.115 -86.8)" fill="#ffd400"/>
  <path id="Path_33" data-name="Path 33" d="M83.734,75.413a1.13,1.13,0,0,0-.028,1.116l.151.228.111-.25a2.781,2.781,0,0,1,.485-.652l.1-.1-.094-.107a1.2,1.2,0,0,0-.472-.257l-.186-.069Zm.139.567a.766.766,0,0,1,.059-.289,1.941,1.941,0,0,1,.189.081,3.642,3.642,0,0,0-.238.3A.906.906,0,0,1,83.873,75.979Zm4.488-6.319a1.994,1.994,0,0,1,.373,1.164,1.422,1.422,0,0,1-.026.278.866.866,0,0,1-.366.57,2.137,2.137,0,0,0-.745-1.1l-.122-.076-.081.118a1.4,1.4,0,0,0-.2.548,1.091,1.091,0,0,1-.671-.652l-.053-.152-.149.064a2.4,2.4,0,0,0-.639.493l-.02.019a1.238,1.238,0,0,1-.325-.815l0-.177-.436.085.082.287.077-.015a1.641,1.641,0,0,0,.482.953l.1.11.1-.093.154-.142a2.985,2.985,0,0,1,.426-.363,1.42,1.42,0,0,0,.955.741l.171.039.013-.174a1.267,1.267,0,0,1,.115-.441,2.167,2.167,0,0,1,.525.984l.021.2.188-.081a1.16,1.16,0,0,0,.7-.875,2.271,2.271,0,0,0-.425-1.708Zm.056-8.362a1.143,1.143,0,0,1-.912.987,1.463,1.463,0,0,0,.06-.406,1.139,1.139,0,0,0-.033-.281l-.085-.335-.187.291a1.28,1.28,0,0,1-1.067.618l.018.3a1.59,1.59,0,0,0,1.033-.431.907.907,0,0,1-.119.368l-.2.3.352-.065a1.517,1.517,0,0,0,1.3-.886,1.121,1.121,0,0,1,.035.269,1.784,1.784,0,0,1-.02.249l-.045.317.273-.17a1.156,1.156,0,0,0,.62-1.093l-.3-.01a.867.867,0,0,1-.23.655,1.415,1.415,0,0,0-.221-.716l-.19-.311ZM85.4,57.121a.385.385,0,0,0-.417.367.56.56,0,0,0,.129.34.639.639,0,0,1,.139.355h.3a.914.914,0,0,0-.188-.518.428.428,0,0,1-.081-.157c0-.04.006-.085.122-.087a1.4,1.4,0,0,1,.631.269,2.86,2.86,0,0,0,1.526.519l0-.3a2.578,2.578,0,0,1-1.373-.475,1.577,1.577,0,0,0-.791-.312Z" transform="translate(-59.737 -40.848)"/>
  <path id="Path_34" data-name="Path 34" d="M88.131,56.14a1.042,1.042,0,0,0,.737.808.593.593,0,0,0,.495-.059.383.383,0,0,0,.139-.324l-.3,0a.117.117,0,0,1-.024.086.333.333,0,0,1-.236,0,.744.744,0,0,1-.515-.571Zm5.136,3.476a.908.908,0,0,1,.253.522,1.479,1.479,0,0,0-.823-.282l0,.3a1.3,1.3,0,0,1,.836.384l.174.173.076-.232a1.045,1.045,0,0,0-.294-1.061Zm.428,1.715a1.252,1.252,0,0,1,.127.417,1.215,1.215,0,0,0-.643-.378l-.072.291a1.061,1.061,0,0,1,.708.57l.169.265.1-.3a1.288,1.288,0,0,0-.125-1.008Zm-3.836,1.727.041.3.215-.213a2.167,2.167,0,0,1,.921-.485l-.044-.3a2.451,2.451,0,0,0-.831.363.8.8,0,0,1,.313-.565l-.174-.243A1.167,1.167,0,0,0,89.859,63.058Zm2.743.031a1.081,1.081,0,0,1,.126.535,1.322,1.322,0,0,1-.025.228,1.981,1.981,0,0,0-.826-.8l-.13.27a1.836,1.836,0,0,1,.844.977l.115.286.155-.267a1.5,1.5,0,0,0,0-1.38Zm1.774-.123a1.415,1.415,0,0,1,.157.671c0,.009,0,.02,0,.029A2.086,2.086,0,0,0,93.683,63l-.112.277a2.072,2.072,0,0,1,.868.749l.295.373.059-.327a1.868,1.868,0,0,0-.15-1.247Zm.222,1.669a.729.729,0,0,1,.139.442.947.947,0,0,1-.018.139,1.761,1.761,0,0,0-.847-.671l-.091.285a1.61,1.61,0,0,1,.847.813l.127.3.146-.294a1.169,1.169,0,0,0-.061-1.2Zm-5.145.7.028.331.23-.241a2.526,2.526,0,0,1,1.044-.651l-.063-.292a2.491,2.491,0,0,0-.917.487.973.973,0,0,1,.565-.739l-.123-.273A1.328,1.328,0,0,0,89.452,65.334Zm-1.3-1.777v.284l.235-.161a3.925,3.925,0,0,1,.782-.423l-.086-.287a3.342,3.342,0,0,0-.611.3,1.232,1.232,0,0,1,.537-.948l-.15-.259a1.7,1.7,0,0,0-.707,1.49ZM94.8,66.451a1.956,1.956,0,0,1,.606.9l.069.255.184-.191a1.1,1.1,0,0,0,.2-1.084l-.013-.054-.294.063.015.062a1.416,1.416,0,0,1,.052.343.721.721,0,0,1-.037.235,2.382,2.382,0,0,0-.591-.761Zm-1.991.715.016.323.237-.221a2.627,2.627,0,0,1,.947-.588l-.093-.284a2.7,2.7,0,0,0-.751.4.955.955,0,0,1,.43-.594l-.126-.271A1.367,1.367,0,0,0,92.807,67.166Zm-1.609-.9a1.166,1.166,0,0,1,.538.689A2.223,2.223,0,0,0,91,66.628l-.173-.051-.094.284.185.055a1.747,1.747,0,0,1,.909.511l.225.235.033-.323a1.526,1.526,0,0,0-.785-1.355l-.1.281ZM87.533,55.787l-.009-.382.3-.007.009.382Zm.29,9.321-.008.308.414-.307a3.2,3.2,0,0,1,.292-.2,2.175,2.175,0,0,0-.208.895,1.816,1.816,0,0,0,.022.281l.3-.045a1.929,1.929,0,0,1,.343-1.341l.2-.309-.361.082a1.6,1.6,0,0,0-.591.273,1.125,1.125,0,0,1,.642-.628l-.079-.288A1.47,1.47,0,0,0,87.823,65.108Z" transform="translate(-62.56 -39.618)"/>
  <path id="Path_35" data-name="Path 35" d="M90.774,92.48l-.147-.26.027-.015.148.26Z" transform="translate(-64.777 -65.909)"/>
  <path id="Path_36" data-name="Path 36" d="M39.958,70.982l.253.161a1.785,1.785,0,0,1,1.4-.9l-.007-.3A2.054,2.054,0,0,0,39.958,70.982ZM21.217,61.3a3.318,3.318,0,0,0,3.125,1.828,14.519,14.519,0,0,0,3.7-.693l-.083-.288a14.274,14.274,0,0,1-3.615.682,3.03,3.03,0,0,1-2.875-1.695Z" transform="translate(-15.198 -43.715)"/>
  <path id="Path_37" data-name="Path 37" d="M27.014,66.816A2.6,2.6,0,0,0,29.636,68.2a10.131,10.131,0,0,0,3.018-.4l-.078-.289a9.872,9.872,0,0,1-2.943.392,2.3,2.3,0,0,1-2.351-1.22Zm5.456,2.544c.413.813,1.422,1.255,2.84,1.245a9.008,9.008,0,0,0,3.009-.592l-.106-.28a8.692,8.692,0,0,1-2.9.573c-1.3.009-2.211-.375-2.57-1.081Z" transform="translate(-19.339 -47.679)"/>
  <path id="Path_38" data-name="Path 38" d="M35.2,71.4a4.659,4.659,0,0,0,3.28,1.258,9.759,9.759,0,0,0,3.589-.552l-.118-.275a9.454,9.454,0,0,1-3.465.528,4.363,4.363,0,0,1-3.057-1.152Zm4.651,2.277a1.839,1.839,0,0,0,1.154,1.066,6.01,6.01,0,0,0,4.2-.6l-.146-.261a5.772,5.772,0,0,1-3.957.582,1.55,1.55,0,0,1-.976-.9l-.279.111ZM43.386,75.6a1.143,1.143,0,0,0,.738.545,2.771,2.771,0,0,0,2-.31l-.155-.256a2.484,2.484,0,0,1-1.765.278.84.84,0,0,1-.553-.4Z" transform="translate(-25.188 -50.91)"/>
  <path id="Path_39" data-name="Path 39" d="M58.422,83.578a1.723,1.723,0,0,0,1.423.82,6.126,6.126,0,0,0,2.593-.535l-.11-.278a5.839,5.839,0,0,1-2.458.516,1.412,1.412,0,0,1-1.2-.687Zm2.8,1.251c.022.263.346.565.77.717a1.547,1.547,0,0,0,1.671-.375l-.214-.209a1.254,1.254,0,0,1-1.354.3c-.354-.127-.563-.353-.572-.46Z" transform="translate(-41.773 -59.629)"/>
  <path id="Path_40" data-name="Path 40" d="M31.405,73.254a.91.91,0,0,1-.892.416,1.146,1.146,0,0,1-1-.523l-.266.139a1.429,1.429,0,0,0,1.259.683,1.285,1.285,0,0,0,1.059-.423,1.221,1.221,0,0,0,.855.366,1.4,1.4,0,0,0,.976-.469,1.463,1.463,0,0,0,.731-.029l-.089-.286a1.157,1.157,0,0,1-.655.014l-.089-.024-.061.068a1.142,1.142,0,0,1-.817.427.964.964,0,0,1-.755-.394l-.159-.2ZM12.164,66.527l-.057.294a15.964,15.964,0,0,0,4.548-.051l-.036-.3A15.716,15.716,0,0,1,12.164,66.527Zm1.915,1.407-.071.29a11.209,11.209,0,0,0,5.084-.111l-.085-.287A10.866,10.866,0,0,1,14.079,67.934Zm2.457,2.024c2.515.908,5.853.345,6.816.151l-.06-.293c-.944.19-4.212.742-6.654-.139Zm4.133,1.686v.3a11.231,11.231,0,0,0,3.953-.732l-.14-.264A11.081,11.081,0,0,1,20.669,71.644Zm2.762.975-.011.3a6.4,6.4,0,0,0,2.994-.9l-.182-.239A6.115,6.115,0,0,1,23.431,72.619Zm.753.449-.024.3a4.683,4.683,0,0,0,3.326-.957l-.2-.221A4.374,4.374,0,0,1,24.184,73.068Zm1.641,1.347.194.228a3.41,3.41,0,0,0,.62-.733l-.253-.161a3.155,3.155,0,0,1-.561.666Zm1.043.1.189.232a2.51,2.51,0,0,0,.556-.649l-.254-.159A2.238,2.238,0,0,1,26.869,74.512Zm1.251.064-.03.034.225.2.03-.033.361-.412-.233-.189Zm1.289.41-.231-.191.462-.556.231.19Zm-9.1-8.674a1.761,1.761,0,0,0,1.423,1.134,5.871,5.871,0,0,0,2.824-.86L24.4,66.33a5.551,5.551,0,0,1-2.663.818,1.454,1.454,0,0,1-1.152-.949l-.278.113Z" transform="translate(-8.691 -47.333)"/>
  <path id="Path_41" data-name="Path 41" d="M49.221,68.715a1.421,1.421,0,0,1-1.1-.489l-.222.2a1.729,1.729,0,0,0,1.321.587,5.541,5.541,0,0,0,2.663-1.06l-.161-.252A5.4,5.4,0,0,1,49.221,68.715Z" transform="translate(-34.257 -48.406)"/>
  <path id="Path_42" data-name="Path 42" d="M57.149,70.237a3.387,3.387,0,0,1-1.595.753,1.338,1.338,0,0,1-1.069-.571l-.23.193a1.619,1.619,0,0,0,1.309.677,3.574,3.574,0,0,0,1.756-.807l.263-.179-.168-.248-.266.181Z" transform="translate(-38.796 -50.088)"/>
  <path id="Path_43" data-name="Path 43" d="M60.659,72.764c-.491.027-.647-.161-.735-.347l-.272.127a.949.949,0,0,0,1.024.519,3.229,3.229,0,0,0,1.843-.891l-.2-.221A2.924,2.924,0,0,1,60.659,72.764Z" transform="translate(-42.651 -51.441)"/>
  <path id="Path_44" data-name="Path 44" d="M64.131,75.08a.681.681,0,0,1-.426-.34l-.264.143a.97.97,0,0,0,.607.485,2.885,2.885,0,0,0,2.063-.523l-.149-.26A2.539,2.539,0,0,1,64.131,75.08Z" transform="translate(-45.358 -53.322)"/>
  <path id="Path_45" data-name="Path 45" d="M65.592,76.772a1.018,1.018,0,0,0,.581.673,3.477,3.477,0,0,0,2.393-.341l-.13-.269a3.151,3.151,0,0,1-2.141.337.722.722,0,0,1-.414-.485Z" transform="translate(-46.894 -54.824)"/>
  <path id="Path_46" data-name="Path 46" d="M68.508,79.277c.531.948,1.293,1.069,2.915.464l-.105-.28c-1.652.617-2.153.373-2.547-.329Z" transform="translate(-48.977 -56.571)"/>
  <path id="Path_47" data-name="Path 47" d="M72.641,82.151a1.241,1.241,0,0,0,.767.727,2.365,2.365,0,0,0,1.865-.314l-.151-.259a2.066,2.066,0,0,1-1.617.29.938.938,0,0,1-.585-.557Z" transform="translate(-51.929 -58.646)"/>
  <path id="Path_48" data-name="Path 48" d="M77.412,67.657a1.172,1.172,0,0,0,.746.693,1.741,1.741,0,0,0,1.37-.34.8.8,0,0,0,.864.482l0-.3c-.342,0-.506-.037-.644-.453l-.063-.192-.166.117a1.6,1.6,0,0,1-1.276.4.884.884,0,0,1-.552-.525Zm26.772-5.562a12.46,12.46,0,0,1-3.355-.406l-.083.287a12.74,12.74,0,0,0,3.437.417,3.417,3.417,0,0,0,3.093-1.557l-.244-.175A3.112,3.112,0,0,1,104.184,62.095Z" transform="translate(-55.337 -43.378)"/>
  <path id="Path_49" data-name="Path 49" d="M146.287,67.116a8.94,8.94,0,0,1-2.218-.327l-.077.289a9.256,9.256,0,0,0,2.3.337,3.056,3.056,0,0,0,2.761-1.529l-.25-.166A2.752,2.752,0,0,1,146.287,67.116Zm-7.765,1.815a5.736,5.736,0,0,0,2.974,1.105,3.237,3.237,0,0,0,2.231-.925l-.2-.219a2.907,2.907,0,0,1-2.028.845,5.461,5.461,0,0,1-2.808-1.056Z" transform="translate(-98.987 -46.991)"/>
  <path id="Path_50" data-name="Path 50" d="M137.967,72.418a6.7,6.7,0,0,1-3.325-1.069l-.181.238a6.954,6.954,0,0,0,3.515,1.13,5.3,5.3,0,0,0,3.417-1.741l-.229-.193A4.965,4.965,0,0,1,137.967,72.418Zm-6.071.946a3.032,3.032,0,0,0,2.546,1.363,2.313,2.313,0,0,0,2.135-1.162l-.261-.148a2.046,2.046,0,0,1-1.87,1.011,2.717,2.717,0,0,1-2.285-1.206Zm.218,2.483a2.309,2.309,0,0,1-1.419-.439l-.189.233a2.593,2.593,0,0,0,1.617.505,1.43,1.43,0,0,0,1.221-.6l-.254-.16A1.181,1.181,0,0,1,132.113,75.847Z" transform="translate(-93.262 -50.607)"/>
  <path id="Path_51" data-name="Path 51" d="M129.145,83.128a3.162,3.162,0,0,0,2.567,1.006,2.24,2.24,0,0,0,1.515-.759l-.25-.165a1.98,1.98,0,0,1-1.3.627,2.874,2.874,0,0,1-2.327-.925Zm.347,1.89a1.221,1.221,0,0,1-1.013-.38l-.214.209a1.568,1.568,0,0,0,2.382-.159l-.264-.142A1.234,1.234,0,0,1,129.492,85.018Z" transform="translate(-91.661 -59.27)"/>
  <path id="Path_52" data-name="Path 52" d="M122.179,72.378c-.107.265-.262.435-.414.457s-.294-.11-.384-.224l-.236.184a.709.709,0,0,0,.663.336.785.785,0,0,0,.539-.421,1.157,1.157,0,0,0,.986.379,1.13,1.13,0,0,0,.963-.717l-.283-.1a.829.829,0,0,1-.71.519.869.869,0,0,1-.855-.436l-.155-.255Zm14.859-7.269a8.047,8.047,0,0,0,2.368.367,9.957,9.957,0,0,0,2.038-.171l-.058-.293a9.626,9.626,0,0,1-1.975.165,7.734,7.734,0,0,1-2.277-.351Zm-.1,1.8a5.467,5.467,0,0,1-2.209-.411l-.137.266a5.689,5.689,0,0,0,2.342.444,9.294,9.294,0,0,0,2.935-.43l-.094-.284A8.956,8.956,0,0,1,136.935,66.9Zm-3.5,2.121a10.572,10.572,0,0,1-2.771-.293l-.078.289a10.906,10.906,0,0,0,2.853.3,11.664,11.664,0,0,0,4.152-.764l-.115-.277a11.353,11.353,0,0,1-4.041.741Zm-4.561,1.092c.592.577,3.031.905,4.491.74l-.034-.3c-1.465.167-3.768-.189-4.247-.656Zm-1.132.612A5.971,5.971,0,0,0,130.46,71.9l-.011-.3a5.782,5.782,0,0,1-2.523-1.111Zm-1.21.561a3.728,3.728,0,0,0,3.318,1.127l-.047-.3a3.414,3.414,0,0,1-3.04-1.021Zm1.053,1.362.145.23c.149.239.319.51.472.705l.237-.184c-.142-.182-.307-.446-.453-.679l-.147-.233Zm-.91.191.141.309a2.006,2.006,0,0,0,.283.525l.221-.2a1.957,1.957,0,0,1-.228-.441l-.151-.329Zm-1.135.189.1.273a1.943,1.943,0,0,0,.216.5l.229-.193a4,4,0,0,1-.163-.41l-.116-.3Zm-1,1-.33-.617.266-.141.33.616Zm7.308-7.916a4.293,4.293,0,0,1-2.212-.852l-.155.256a4.5,4.5,0,0,0,2.374.895,2.133,2.133,0,0,0,1.649-1.169l-.278-.113A1.847,1.847,0,0,1,131.847,66.114Z" transform="translate(-86.575 -46.351)"/>
  <path id="Path_53" data-name="Path 53" d="M145.208,68.793l.074.042c.971.542,2.3,1.285,3.509.232l-.2-.225c-1.05.914-2.222.259-3.164-.268l-.074-.042Z" transform="translate(-103.763 -48.999)"/>
  <path id="Path_54" data-name="Path 54" d="M139.184,70.363a3.254,3.254,0,0,0,1.794.745,1.491,1.491,0,0,0,1.343-.522l-.23-.193a1.2,1.2,0,0,1-1.1.416,2.954,2.954,0,0,1-1.636-.694Z" transform="translate(-99.46 -50.13)"/>
  <path id="Path_55" data-name="Path 55" d="M135.337,72.534a3.107,3.107,0,0,0,1.811.587,1.051,1.051,0,0,0,.928-.461l-.258-.153a.758.758,0,0,1-.679.315,2.845,2.845,0,0,1-1.6-.51Z" transform="translate(-96.712 -51.7)"/>
  <path id="Path_56" data-name="Path 56" d="M133.713,75.171a2.7,2.7,0,0,1-1.263-.422l-.149.259a2.988,2.988,0,0,0,1.411.462,1.22,1.22,0,0,0,1.12-.682l-.264-.142A.912.912,0,0,1,133.713,75.171Z" transform="translate(-94.544 -53.366)"/>
  <path id="Path_57" data-name="Path 57" d="M131.949,77.5a2.059,2.059,0,0,1-1.035-.207l-.13.269a2.371,2.371,0,0,0,1.192.235,1.28,1.28,0,0,0,1.078-.7l-.267-.137A.98.98,0,0,1,131.949,77.5Z" transform="translate(-93.46 -55.019)"/>
  <path id="Path_58" data-name="Path 58" d="M128.547,80.487a3.258,3.258,0,0,1-1.293-.376l-.126.272a3.521,3.521,0,0,0,1.421.4,1.359,1.359,0,0,0,1.192-.846l-.263-.146C129.2,80.289,128.94,80.484,128.547,80.487Zm-1.057,3.875h.3v.173h-.3Z" transform="translate(-90.849 -57.044)"/>
  <path id="Path_59" data-name="Path 59" d="M112.592,83.624a1.577,1.577,0,0,1-.9-.24l-.309-.2.08.359a.663.663,0,0,1-.061.513.333.333,0,0,1-.223.147.636.636,0,0,1-.519-.218l-.205.218a.9.9,0,0,0,.777.294.636.636,0,0,0,.421-.275.846.846,0,0,0,.131-.453,1.851,1.851,0,0,0,.834.154,1.02,1.02,0,0,0,.9-.628l-.276-.119a.716.716,0,0,1-.649.449ZM106,89.381a1.515,1.515,0,0,0,.456,1.1l.2.186.061-.3a1.829,1.829,0,0,1,.159-.5,1.748,1.748,0,0,1,.225.251l.134.185.216-.362a1.782,1.782,0,0,1,.56-.657,3.9,3.9,0,0,1,.6.5l.318.291.082-.178a1.9,1.9,0,0,1,.559-.634l.119.071.173-.245-.328-.193-.069.067a2.5,2.5,0,0,0-.617.631l-.029-.027a3.307,3.307,0,0,0-.762-.6l-.069-.03-.065.037a1.934,1.934,0,0,0-.726.8,1.921,1.921,0,0,0-.279-.262l-.133-.1-.086.142a2.013,2.013,0,0,0-.216.481,1.3,1.3,0,0,1-.184-.663v-.038a1.808,1.808,0,0,1,.36-1.11l-.216-.208A2.1,2.1,0,0,0,106,89.381Z" transform="translate(-75.754 -59.459)"/>
  <path id="Path_60" data-name="Path 60" d="M79.755,118.211a1.034,1.034,0,0,1,.581-.943,1.021,1.021,0,0,0,.07.55A1.458,1.458,0,0,0,79.755,118.211Z" transform="translate(-57.01 -83.811)" fill="#ffd400"/>
  <path id="Path_61" data-name="Path 61" d="M79.907,116.566a1.177,1.177,0,0,0-.678,1.1l.028.319.228-.226a1.336,1.336,0,0,1,.575-.353l.2-.041-.1-.177a.894.894,0,0,1-.053-.463l.026-.241Zm-.1.412a1.083,1.083,0,0,0,.033.186,1.381,1.381,0,0,0-.23.114A.917.917,0,0,1,79.81,116.978Z" transform="translate(-56.633 -83.249)"/>
  <path id="Path_62" data-name="Path 62" d="M88.682,123.443a.675.675,0,0,1-.392-.814,1.1,1.1,0,0,1,.537.011A2.394,2.394,0,0,0,88.682,123.443Z" transform="translate(-63.084 -87.62)" fill="#ffd400"/>
  <path id="Path_63" data-name="Path 63" d="M87.889,122.108l-.088.016-.027.085a.825.825,0,0,0,.473,1l.244.109-.034-.264a1.874,1.874,0,0,1,.109-.629l.069-.249-.13-.047A1.245,1.245,0,0,0,87.889,122.108Zm.376.278a3.425,3.425,0,0,0-.088.4.494.494,0,0,1-.142-.334.445.445,0,0,1,.01-.059A1.059,1.059,0,0,1,88.265,122.386Z" transform="translate(-62.71 -87.246)"/>
  <path id="Path_64" data-name="Path 64" d="M99.305,115.9a.856.856,0,0,0-.763-.648,2.282,2.282,0,0,1,.007.475A3.067,3.067,0,0,1,99.305,115.9Z" transform="translate(-70.43 -82.367)" fill="#ffd400"/>
  <path id="Path_65" data-name="Path 65" d="M88.553,109.62l-.177,0,.031.173a1.443,1.443,0,0,1,.009.329l-.01.257.141.011a2.92,2.92,0,0,1,.713.163l.234.1-.027-.251A1.01,1.01,0,0,0,88.553,109.62Zm.169.354c0-.005,0-.011,0-.016a.818.818,0,0,1,.3.215q-.152-.036-.307-.058C88.72,110.069,88.722,110.022,88.722,109.974Zm-2.228-1.348.009.3.533,0h.331l0-.3h-.327Zm.18-.216-.005-.3.776-.014.005.3Zm.789-.831-.676.013,0,.3.769-.015.136-.208C87.657,107.576,87.592,107.577,87.463,107.58Zm-2.227,2.331c-.225.049-.456.071-.675.115a.323.323,0,0,0,.088.057l.023.357c.157.045.128-.151.285-.151l.287-.088C85.244,110.176,85.242,110.057,85.236,109.911Zm-.539.889a1.818,1.818,0,0,0,.425-.192c0-.012,0-.024,0-.036a.774.774,0,0,0-.4.112A.55.55,0,0,1,84.7,110.8Zm.429-.162a1.271,1.271,0,0,0-.445.579,1.337,1.337,0,0,1,.551.069C85.292,111.108,85.157,110.824,85.126,110.638Zm.7.459c-.049.173-.111.332-.147.5l.283-.12c.022-.089.261-.391.373-.391C86.28,111.037,86,111.076,85.824,111.1Zm2.527-1.392c-.363-.082-.406-.28-.843-.5a.767.767,0,0,0,.816.787,1.326,1.326,0,0,0,.027-.288Z" transform="translate(-60.444 -76.89)"/>
  <path id="Path_66" data-name="Path 66" d="M109.228,104.089c.024.858.18,2.221.948,2.767.649.461,1.153.307,1.618.721l-.039.465c-.819-.265-.507-.017-1.165-.2.5.353.658.363.718.947-.2.041-.289.212-.422.293-.237-.249-.669-.368-.991-.9a11.8,11.8,0,0,1,.107,1.208,1.5,1.5,0,0,0-.516,0,4.941,4.941,0,0,1-.5-1.447c-.451,0-.47-.469-.893-.541-.191-.033-.477.115-.731.075a3.849,3.849,0,0,1,0-.522c.472-.147.61-.448,1.176-.713a3.224,3.224,0,0,0-.117-1.775,1.528,1.528,0,0,1,.542-.564A2.678,2.678,0,0,1,109.228,104.089Z" transform="translate(-76.718 -74.259)" fill="#ffd400"/>
  <path id="Path_67" data-name="Path 67" d="M108.5,103.285l-.089.068a1.431,1.431,0,0,0-.5.55l-.021.045.078.38a4.92,4.92,0,0,1,.139.932,1.036,1.036,0,0,1-.066.377,3.179,3.179,0,0,0-.563.365,1.592,1.592,0,0,1-.534.31l-.1.032-.007.266.01.511.123,0a1.258,1.258,0,0,0,.469-.042.843.843,0,0,1,.26-.033.564.564,0,0,1,.331.228.819.819,0,0,0,.456.3,5.247,5.247,0,0,0,.468,1.311l.08.173.115-.021a1.35,1.35,0,0,1,.465,0l.175.028v-.176a6.3,6.3,0,0,0-.052-.723,3.058,3.058,0,0,0,.4.3,1.638,1.638,0,0,1,.279.214l.1.1.091-.077.16-.131a.466.466,0,0,1,.215-.143l.132-.028-.014-.134a.952.952,0,0,0-.3-.71,1.8,1.8,0,0,1,.554.125l.181.058.061-.728-.056-.05a1.767,1.767,0,0,0-.8-.377,2.335,2.335,0,0,1-.827-.355c-.684-.486-.859-1.709-.885-2.649l0-.072-.131-.1-.321-.217Zm.094.306.005,0,.12.085a3.684,3.684,0,0,0,1.008,2.811,2.616,2.616,0,0,0,.924.4,1.625,1.625,0,0,1,.624.269l-.017.2a1.407,1.407,0,0,0-.543-.083,1.134,1.134,0,0,1-.447-.069l-.883-.251.96.657c.3.2.385.275.433.6a.989.989,0,0,0-.225.16l-.028.024q-.108-.087-.223-.163a1.894,1.894,0,0,1-.641-.619l-.355-.587.115,1.017c.028.238.05.465.06.692a1.611,1.611,0,0,0-.265.005,4.484,4.484,0,0,1-.446-1.289v-.15h-.151c-.163,0-.241-.078-.364-.215a.848.848,0,0,0-.5-.324,1,1,0,0,0-.376.036,1.77,1.77,0,0,1-.233.035l0-.2,0-.064a2.058,2.058,0,0,0,.526-.32,2.777,2.777,0,0,1,.567-.361l.05-.023.023-.05a1.285,1.285,0,0,0,.1-.542,5.1,5.1,0,0,0-.145-.994l-.056-.277A1.209,1.209,0,0,1,108.591,103.591Z" transform="translate(-76.353 -73.766)"/>
  <path id="Path_68" data-name="Path 68" d="M120.243,121.784a1,1,0,0,0-.024-.945,1.67,1.67,0,0,0-.47.345A2.8,2.8,0,0,1,120.243,121.784Z" transform="translate(-85.578 -86.361)" fill="#ffd400"/>
  <path id="Path_69" data-name="Path 69" d="M119.644,120.246a1.81,1.81,0,0,0-.527.386l-.094.107.1.1a2.754,2.754,0,0,1,.467.563l.119.22.139-.209a1.131,1.131,0,0,0-.028-1.116l-.069-.093Zm-.012.348a.769.769,0,0,1,.049.262,1.039,1.039,0,0,1-.014.129q-.105-.131-.223-.252A1.932,1.932,0,0,1,119.633,120.594Z" transform="translate(-85.059 -85.907)"/>
  <path id="Path_70" data-name="Path 70" d="M123.473,117.666a1.033,1.033,0,0,0-.581-.943,1.754,1.754,0,0,1-.07.473A3.432,3.432,0,0,1,123.473,117.666Z" transform="translate(-87.773 -83.421)" fill="#ffd400"/>
  <path id="Path_71" data-name="Path 71" d="M122.281,116.186a1.611,1.611,0,0,1-.064.435l-.041.131.127.052a2.118,2.118,0,0,1,.459.322l.377.307.021-.285a1.178,1.178,0,0,0-.678-1.1l-.195-.072Zm.28.265a.887.887,0,0,1,.211.3,1.945,1.945,0,0,0-.242-.158C122.541,116.545,122.555,116.5,122.561,116.451Z" transform="translate(-87.312 -82.89)"/>
  <path id="Path_72" data-name="Path 72" d="M114.958,123.647a.675.675,0,0,0,.392-.813,1.094,1.094,0,0,0-.537.011A2.393,2.393,0,0,1,114.958,123.647Z" transform="translate(-82.052 -87.766)" fill="#ffd400"/>
  <path id="Path_73" data-name="Path 73" d="M114.306,122.329l-.13.048.069.248a1.884,1.884,0,0,1,.109.629l-.034.264.245-.109a.825.825,0,0,0,.473-1l-.027-.085-.088-.016a1.241,1.241,0,0,0-.617.017Zm.461.267a.449.449,0,0,1,.01.059.5.5,0,0,1-.142.335,3.339,3.339,0,0,0-.088-.4,1.042,1.042,0,0,1,.22.005Z" transform="translate(-81.597 -87.392)"/>
  <path id="Path_74" data-name="Path 74" d="M105.086,115.49a.8.8,0,0,1,.665-.781,2.284,2.284,0,0,0-.007.475A2.534,2.534,0,0,0,105.086,115.49Z" transform="translate(-75.104 -81.983)" fill="#ffd400"/>
  <path id="Path_75" data-name="Path 75" d="M99.063,109.673a.95.95,0,0,0-.281.68l.017.24.275-.159a2.131,2.131,0,0,1,.552-.252l.118-.029-.009-.235a1.473,1.473,0,0,1,.009-.329l.031-.174-.177,0a.744.744,0,0,0-.536.261Zm.219.205a.656.656,0,0,1,.149-.117v0c0,.056,0,.111.005.165v0a2.1,2.1,0,0,0-.262.1A.818.818,0,0,1,99.281,109.878Zm1.942-1.463-.384.005,0,.3.393-.005.511,0,.008-.3Zm-.321-.122-.009-.3.751-.022.009.3Zm-.195-.707.118.256c.057,0,.591-.043.719-.041l0-.3A2.981,2.981,0,0,0,100.708,107.586Zm2.166,2.186c.225.049.491.1.71.142-.154.157-.149-.022-.167.273-.157.045-.135-.06-.292-.06l-.287-.088A2.257,2.257,0,0,0,102.874,109.772Zm-.039.663a2.232,2.232,0,0,1,.636.727c-.2,0-.37-.063-.508.005C103,110.744,102.7,110.8,102.835,110.435Zm-.82.627c.049.172.11.332.147.5l-.283-.12c-.022-.089-.143-.391-.255-.391.052-.052.215-.013.391.008ZM99.85,109.44c.363-.083.406-.28.844-.5a.767.767,0,0,1-.816.787A1.359,1.359,0,0,1,99.85,109.44Zm-2.855,5.608.1.007a.518.518,0,0,1,.233.053.135.135,0,0,1,.052.13.125.125,0,0,1-.073.115.554.554,0,0,1-.241.019l-.094-.007Zm-.038,1.26a3.568,3.568,0,0,0,.426.012.716.716,0,0,0,.223-.046.385.385,0,0,0,.177-.135.413.413,0,0,0,.074-.216.378.378,0,0,0-.084-.286.434.434,0,0,0-.279-.137.481.481,0,0,0,.247-.1.3.3,0,0,0,.09-.208.346.346,0,0,0-.037-.19.352.352,0,0,0-.137-.139.668.668,0,0,0-.2-.072,3.291,3.291,0,0,0-.408-.046l-.474-.033-.11,1.565Zm0-.663.171.012a.5.5,0,0,1,.234.055.149.149,0,0,1,.054.143.134.134,0,0,1-.079.122.534.534,0,0,1-.241.022l-.164-.011Z" transform="translate(-68.949 -76.835)"/>
  <g id="Group_1" data-name="Group 1" transform="translate(9.956 0)">
    <path id="Path_76" data-name="Path 76" d="M40.8.168a.118.118,0,0,1,.074.066L42.2,4.273l4.288,0c.11.035.117.1.037.176l-3.452,2.5,1.323,4.059c0,.115-.064.143-.157.09L40.784,8.6l-3.47,2.506c-.11.035-.157-.017-.135-.12L38.5,6.947,35.03,4.438c-.068-.093-.033-.153.074-.165h4.267L40.7.215A.11.11,0,0,1,40.8.168Zm-.019.278,1.3,3.981h4.207l-3.4,2.461,1.3,3.981-3.4-2.461-3.4,2.461,1.3-3.981-3.4-2.461h4.207l1.3-3.981Z" transform="translate(-34.996 -0.167)" fill="#fff" fill-rule="evenodd"/>
    <path id="Path_77" data-name="Path 77" d="M41.493,1.134l1.3,3.987,4.206,0L43.6,7.587l1.3,3.975-3.4-2.451-3.4,2.45,1.295-3.974-3.4-2.469,4.2,0,1.3-3.987Zm0,.46,1.2,3.67h3.878L43.432,7.532l1.2,3.67L41.493,8.934,38.356,11.2l1.2-3.67L36.417,5.264H40.3l1.2-3.67Z" transform="translate(-35.703 -0.858)" fill-rule="evenodd"/>
    <path id="Path_78" data-name="Path 78" d="M42.571,2.744l1.2,3.67h3.878L44.51,8.682l1.2,3.67-3.137-2.268-3.137,2.268,1.2-3.67L37.5,6.414h3.878Z" transform="translate(-36.781 -2.008)" fill="#ffd503" fill-rule="evenodd"/>
  </g>
  <g id="Group_2" data-name="Group 2" transform="translate(23.563 0)">
    <path id="Path_79" data-name="Path 79" d="M88.431.168A.118.118,0,0,1,88.5.234l1.319,4.039,4.288,0c.11.035.117.1.037.176L90.7,6.947l1.323,4.059c0,.115-.064.143-.157.09L88.41,8.6l-3.47,2.506c-.11.035-.157-.017-.135-.12l1.319-4.039-3.468-2.51c-.068-.093-.033-.153.074-.165H87L88.325.215a.11.11,0,0,1,.106-.047Zm-.019.278,1.3,3.981h4.207l-3.4,2.461,1.3,3.981-3.4-2.461-3.4,2.461,1.3-3.981-3.4-2.461h4.207l1.3-3.981Z" transform="translate(-82.622 -0.167)" fill="#fff" fill-rule="evenodd"/>
    <path id="Path_80" data-name="Path 80" d="M89.119,1.134l1.3,3.987,4.206,0-3.4,2.469,1.3,3.975-3.4-2.451-3.4,2.45,1.295-3.974-3.4-2.469,4.2,0,1.3-3.987Zm0,.46,1.2,3.67H94.2L91.058,7.532l1.2,3.67L89.119,8.934,85.982,11.2l1.2-3.67L84.043,5.264h3.878l1.2-3.67Z" transform="translate(-83.329 -0.858)" fill-rule="evenodd"/>
    <path id="Path_81" data-name="Path 81" d="M90.2,2.744l1.2,3.67h3.878L92.136,8.682l1.2,3.67L90.2,10.084,87.06,12.352l1.2-3.67L85.121,6.414H89Z" transform="translate(-84.407 -2.008)" fill="#ffd503" fill-rule="evenodd"/>
  </g>
  <g id="Group_3" data-name="Group 3" transform="translate(37.222 0)">
    <path id="Path_82" data-name="Path 82" d="M136.238.168a.118.118,0,0,1,.074.066l1.319,4.039,4.288,0c.11.035.117.1.037.176l-3.452,2.5,1.323,4.059c0,.115-.064.143-.157.09l-3.453-2.5-3.47,2.506c-.11.035-.157-.017-.135-.12l1.319-4.039-3.468-2.51c-.068-.093-.033-.153.074-.165H134.8L136.132.215a.11.11,0,0,1,.106-.047Zm-.019.278,1.3,3.981h4.207l-3.4,2.461,1.3,3.981-3.4-2.461-3.4,2.461,1.3-3.981-3.4-2.461h4.207l1.3-3.981Z" transform="translate(-130.429 -0.167)" fill="#fff" fill-rule="evenodd"/>
    <path id="Path_83" data-name="Path 83" d="M136.927,1.134l1.3,3.987,4.206,0-3.4,2.469,1.3,3.975-3.4-2.451-3.4,2.45,1.295-3.974-3.4-2.469,4.2,0,1.3-3.987Zm0,.46,1.2,3.67H142l-3.137,2.268,1.2,3.67-3.137-2.268L133.79,11.2l1.2-3.67-3.137-2.268h3.878l1.2-3.67Z" transform="translate(-131.137 -0.858)" fill-rule="evenodd"/>
    <path id="Path_84" data-name="Path 84" d="M138.005,2.744l1.2,3.67h3.878l-3.137,2.268,1.2,3.67-3.137-2.268-3.137,2.268,1.2-3.67-3.137-2.268h3.878Z" transform="translate(-132.215 -2.008)" fill="#ffd503" fill-rule="evenodd"/>
  </g>
</svg>
